<?xml version="1.0" standalone="no"?>
<!DOCTYPE svg PUBLIC "-//W3C//DTD SVG 20010904//EN"
 "http://www.w3.org/TR/2001/REC-SVG-20010904/DTD/svg10.dtd">
<svg version="1.0" xmlns="http://www.w3.org/2000/svg"
 width="500.000000pt" height="500.000000pt" viewBox="0 0 500.000000 500.000000"
 preserveAspectRatio="xMidYMid meet">

<g transform="translate(0.000000,500.000000) scale(0.100000,-0.100000)"
fill="#000000" stroke="none">
<path d="M2954 4210 c-27 -18 -51 -21 -185 -23 -174 -3 -207 -12 -248 -73 -23
-33 -26 -34 -90 -34 -93 0 -151 -29 -221 -111 -73 -85 -78 -88 -128 -89 -55 0
-108 -23 -150 -63 -47 -45 -64 -81 -67 -144 -1 -38 -8 -60 -23 -76 -34 -36
-53 -102 -43 -147 11 -50 46 -98 76 -106 15 -4 32 -22 45 -46 19 -36 20 -46
10 -121 -15 -110 -23 -293 -10 -223 5 28 10 64 11 80 2 17 5 36 8 41 6 11 9
24 17 80 21 144 69 261 148 362 45 58 53 63 105 74 31 6 74 17 96 24 40 13
151 13 258 -1 26 -3 69 -1 94 5 32 9 54 9 77 1 40 -13 97 -15 162 -5 50 7 79
2 362 -65 23 -5 54 -10 67 -10 39 0 112 -39 146 -78 61 -70 99 -196 112 -377
3 -37 27 -128 66 -242 33 -100 61 -193 61 -207 0 -36 16 -72 35 -80 11 -4 27
6 49 30 l33 36 20 -28 c37 -51 49 -29 63 118 7 73 18 169 24 213 10 76 13 81
42 94 32 14 84 83 84 112 0 9 8 27 18 40 45 60 52 111 27 188 -9 25 -20 65
-26 89 -5 24 -25 60 -44 81 -31 34 -51 76 -77 160 -12 41 -48 100 -97 159 -37
45 -155 112 -195 112 -24 0 -52 17 -93 58 -15 16 -35 33 -43 38 -8 5 -27 25
-42 45 -39 53 -90 74 -145 62 -60 -14 -136 1 -185 38 -36 25 -50 29 -107 29
-49 0 -74 -6 -97 -20z"/>
<path d="M2897 3190 c-71 -9 -117 -30 -117 -55 0 -23 39 -57 57 -51 9 4 47 14
86 22 67 16 76 15 146 -1 42 -10 117 -40 170 -67 77 -40 96 -47 107 -36 15 16
0 36 -61 84 -109 85 -244 121 -388 104z"/>
<path d="M2152 3129 c-99 -17 -212 -89 -212 -136 0 -29 11 -29 63 1 52 30 147
48 234 44 59 -2 66 0 83 22 23 29 25 51 8 68 -14 14 -97 14 -176 1z"/>
<path d="M1383 2938 c-34 -60 -55 -115 -50 -134 4 -15 5 -13 6 6 1 14 12 43
26 65 30 49 47 86 42 92 -3 2 -13 -11 -24 -29z"/>
<path d="M2017 2806 c-53 -14 -109 -60 -100 -82 8 -21 17 -17 61 26 50 50 76
54 60 10 -6 -17 -7 -51 -3 -76 6 -40 11 -47 42 -61 25 -10 53 -13 87 -9 28 3
65 7 81 9 25 2 34 10 50 45 13 29 24 41 35 37 30 -10 -63 64 -104 84 -57 26
-149 34 -209 17z m133 -16 c11 -7 12 -14 4 -27 -14 -23 -27 -26 -49 -10 -37
28 5 63 45 37z"/>
<path d="M2915 2764 c-80 -17 -108 -30 -135 -61 -49 -55 -33 -77 18 -24 15 16
37 32 49 36 20 5 21 3 16 -32 -3 -23 1 -53 10 -75 15 -35 17 -36 74 -40 32 -2
90 1 130 6 79 11 93 24 93 91 0 19 3 35 8 35 4 0 24 -11 44 -25 26 -17 36 -21
32 -10 -10 25 -125 83 -188 94 -59 11 -113 12 -151 5z m80 -24 c8 -13 -13 -40
-31 -40 -17 0 -46 29 -39 41 8 12 62 11 70 -1z"/>
<path d="M563 2555 c-28 -13 -68 -41 -88 -62 -20 -21 -59 -61 -86 -90 -63 -66
-85 -115 -104 -239 -9 -54 -29 -153 -46 -219 -36 -141 -46 -247 -30 -328 14
-76 34 -118 87 -176 70 -77 128 -102 559 -236 83 -26 170 -56 195 -67 95 -42
218 -103 295 -146 44 -25 92 -51 107 -59 36 -19 79 -110 128 -270 62 -203 72
-260 73 -430 l1 -153 1308 0 1308 0 0 33 c0 46 -37 263 -54 322 -27 91 -161
327 -240 426 -12 14 -34 43 -51 64 -101 129 -237 236 -422 331 -88 45 -108 59
-108 77 0 16 -12 28 -45 45 -36 18 -61 22 -136 22 -75 0 -93 3 -98 16 -9 22
-7 187 2 201 4 6 32 21 62 33 109 43 278 151 415 265 28 23 65 50 83 61 l33
19 25 -33 c30 -37 54 -42 54 -9 0 23 -56 59 -113 73 -26 6 -27 8 -22 54 3 26
10 62 15 81 6 19 10 66 10 104 0 69 -1 71 -26 73 -25 2 -54 -17 -54 -36 0 -5
-9 -12 -20 -15 -14 -4 -18 -10 -13 -23 4 -11 3 -15 -5 -10 -6 3 -27 -5 -48
-19 -20 -14 -40 -25 -45 -25 -4 0 -11 -9 -14 -20 -3 -11 -13 -20 -21 -20 -8 0
-13 -4 -12 -8 5 -14 -82 -122 -149 -187 -110 -107 -277 -245 -333 -275 -19
-11 -55 -30 -80 -42 -25 -13 -57 -32 -72 -41 -68 -46 -286 -98 -338 -82 -11 4
-31 7 -44 9 -50 5 -133 65 -219 157 -108 117 -247 293 -269 339 -9 19 -31 67
-49 105 -17 39 -35 84 -40 100 -5 23 -7 14 -8 -36 -2 -108 33 -199 135 -356
59 -91 186 -229 252 -275 56 -38 46 -52 -32 -45 -57 6 -181 46 -356 115 -114
45 -184 68 -310 103 -229 63 -254 70 -262 75 -11 7 -235 65 -276 71 -36 6 -52
27 -34 45 13 13 84 -3 312 -69 85 -25 164 -47 175 -49 30 -6 -199 73 -280 97
-323 94 -418 147 -519 288 -17 23 -36 41 -43 41 -19 0 -40 39 -48 87 -7 42 16
147 33 155 15 6 63 76 55 81 -4 3 -31 -6 -60 -18z m769 -1035 c23 -11 46 -20
51 -20 12 0 67 -40 67 -49 0 -3 -25 -8 -55 -9 -44 -2 -60 2 -77 18 -12 11 -19
23 -15 26 4 4 -2 14 -13 21 -11 8 -18 19 -15 24 8 12 10 12 57 -11z m-69 -16
c10 -4 16 -12 14 -18 -5 -12 -47 -10 -60 3 -12 12 2 34 16 27 7 -4 20 -9 30
-12z m1824 -140 c-3 -3 -12 -4 -19 -1 -8 3 -5 6 6 6 11 1 17 -2 13 -5z m-54
-11 c-13 -2 -23 -8 -23 -12 0 -9 -169 -45 -177 -38 -2 3 20 10 49 17 29 7 71
18 93 26 22 7 49 13 60 12 17 -1 17 -1 -2 -5z m-109 -423 c6 -6 18 -10 28 -10
11 0 18 -7 18 -19 0 -10 9 -21 20 -24 11 -3 20 -10 20 -17 0 -7 -9 -14 -20
-17 -11 -3 -20 -11 -20 -17 0 -7 -20 -23 -45 -35 -40 -20 -54 -22 -119 -16
-63 6 -78 11 -97 34 -26 29 -33 51 -17 51 6 0 4 8 -6 19 -15 16 -15 20 -1 31
8 7 13 16 10 20 -3 5 1 11 7 14 20 9 211 -3 222 -14z m-131 -277 c-13 -2 -33
-2 -45 0 -13 2 -3 4 22 4 25 0 35 -2 23 -4z m939 -37 c12 -17 28 -37 35 -44 6
-7 17 -28 24 -47 7 -19 19 -35 26 -35 7 0 13 -8 13 -19 0 -10 3 -33 6 -50 5
-21 3 -31 -6 -31 -21 0 -86 77 -100 119 -7 23 -17 41 -22 41 -4 0 -8 14 -8 30
0 18 -6 33 -15 36 -8 4 -15 14 -15 24 0 27 36 14 62 -24z"/>
<path d="M1453 2514 c-21 -9 -33 -21 -33 -34 0 -20 51 -77 95 -106 21 -14 26
-14 48 0 47 31 64 116 28 136 -14 7 -21 6 -24 -3 -3 -9 -7 -9 -18 -1 -24 19
-63 22 -96 8z"/>
<path d="M3863 2435 c-20 -20 -33 -38 -31 -41 8 -7 101 49 106 64 8 26 -42 10
-75 -23z"/>
<path d="M2276 2372 c-12 -19 12 -68 44 -89 26 -18 47 -23 97 -23 58 0 68 3
94 29 35 36 38 56 7 46 -34 -11 -126 -18 -153 -11 -13 3 -37 17 -53 31 -17 14
-33 22 -36 17z"/>
<path d="M1426 2331 c-3 -4 -26 -14 -51 -21 l-45 -12 20 -27 c39 -56 34 -111
-11 -111 -10 0 -39 -19 -64 -43 l-46 -44 38 -16 c21 -9 57 -21 81 -27 38 -10
46 -8 72 10 39 28 50 50 50 98 0 37 2 40 35 46 46 9 77 53 73 103 l-3 38 -51
-3 c-30 -2 -55 1 -58 7 -8 13 -33 14 -40 2z m15 -131 c26 -14 25 -45 -1 -47
-18 -2 -40 28 -40 53 0 7 21 4 41 -6z"/>
<path d="M2090 2163 c0 -4 19 -30 43 -56 32 -36 59 -55 116 -77 67 -28 83 -30
196 -30 124 0 185 7 185 20 0 4 -44 10 -97 14 -133 9 -253 26 -253 37 0 17
446 16 464 -1 5 -5 15 -6 24 -3 10 4 13 2 8 -5 -10 -17 4 -15 50 7 77 37 85
75 12 50 -44 -14 -372 -19 -433 -6 -16 3 -85 13 -153 21 -68 9 -132 21 -143
26 -10 6 -19 7 -19 3z"/>
<path d="M2880 2145 c0 -2 9 -9 20 -15 16 -9 20 -8 20 5 0 8 -9 15 -20 15 -11
0 -20 -2 -20 -5z"/>
<path d="M1606 1835 c-3 -8 -16 -20 -28 -25 -15 -5 -17 -9 -7 -9 17 -1 56 36
47 44 -3 3 -8 -1 -12 -10z"/>
<path d="M1498 1803 c6 -2 18 -2 25 0 6 3 1 5 -13 5 -14 0 -19 -2 -12 -5z"/>
</g>
</svg>
